# xmcd
#
# Track frame offsets: 
#        150
#        17053
#        33935
#        48094
#        67619
#        85163
#        99716
#        115280
#        129268
#        146507
#
# Disc length: 2186 seconds
#
# Revision: 1
# Processed by: cddbd v1.5.2PL0 Copyright (c) Steve Scherf et al.
# Submitted via: ExactAudioCopy v1.3
#
DISCID=7508880a
DTITLE=Johnny Smith - My Dear Little Sweetheart
DYEAR=1960
DGENRE=Jazz
TTITLE0=My Dear Little Sweetheart
TTITLE1=Indian Summer
TTITLE2=Softly, As In A Morning Sunrise
TTITLE3=All The Things You Are
TTITLE4=It's So Peaceful In The Country
TTITLE5=Once In A While
TTITLE6=Flamingo
TTITLE7=Spring Is Here
TTITLE8=Violets For Her Furs
TTITLE9=It Never Entered My Mind
EXTD=
EXTT0=
EXTT1=
EXTT2=
EXTT3=
EXTT4=
EXTT5=
EXTT6=
EXTT7=
EXTT8=
EXTT9=
PLAYORDER=
